<?xml version="1.0" encoding="UTF-8" standalone="no"?>
<!-- Created with Inkscape (http://www.inkscape.org/) -->

<svg
   width="96"
   height="96"
   viewBox="0 0 96 96"
   version="1.1"
   id="svg1"
   xml:space="preserve"
   inkscape:export-filename="omni96.png"
   inkscape:export-xdpi="96"
   inkscape:export-ydpi="96"
   inkscape:version="1.3 (0e150ed6c4, 2023-07-21)"
   sodipodi:docname="drawing.svg"
   xmlns:inkscape="http://www.inkscape.org/namespaces/inkscape"
   xmlns:sodipodi="http://sodipodi.sourceforge.net/DTD/sodipodi-0.dtd"
   xmlns:xlink="http://www.w3.org/1999/xlink"
   xmlns="http://www.w3.org/2000/svg"
   xmlns:svg="http://www.w3.org/2000/svg"><sodipodi:namedview
     id="namedview1"
     pagecolor="#505050"
     bordercolor="#ffffff"
     borderopacity="1"
     inkscape:showpageshadow="0"
     inkscape:pageopacity="0"
     inkscape:pagecheckerboard="1"
     inkscape:deskcolor="#505050"
     inkscape:document-units="px"
     inkscape:zoom="2.8284271"
     inkscape:cx="24.395184"
     inkscape:cy="86.267027"
     inkscape:window-width="1914"
     inkscape:window-height="1024"
     inkscape:window-x="0"
     inkscape:window-y="0"
     inkscape:window-maximized="1"
     inkscape:current-layer="layer1"
     inkscape:export-bgcolor="#00000000"><sodipodi:guide
       position="0,972"
       orientation="0,1080"
       id="guide1"
       inkscape:locked="false" /><sodipodi:guide
       position="1919.5297,521.4345"
       orientation="1080,0"
       id="guide2"
       inkscape:locked="false" /><sodipodi:guide
       position="1080,400"
       orientation="0,-1080"
       id="guide3"
       inkscape:locked="false" /><sodipodi:guide
       position="0,-108"
       orientation="-1080,0"
       id="guide4"
       inkscape:locked="false" /></sodipodi:namedview><defs
     id="defs1"><pattern
       inkscape:collect="always"
       xlink:href="#pattern33"
       preserveAspectRatio="xMidYMid"
       id="pattern40"
       patternTransform="translate(33.628508,27.588927)" /><pattern
       inkscape:collect="always"
       xlink:href="#pattern33"
       preserveAspectRatio="xMidYMid"
       id="pattern34"
       patternTransform="translate(33.628508,27.588927)"
       x="0"
       y="0" /><inkscape:path-effect
       effect="fillet_chamfer"
       id="path-effect40"
       is_visible="true"
       lpeversion="1"
       nodesatellites_param="F,0,0,1,0,0,0,1 @ F,0,0,1,0,16.013566,0,1 @ F,0,1,1,0,16.013566,0,1 @ F,0,0,1,0,3.4714329,0,1 @ F,0,0,1,0,5.3123933,0,1 @ F,0,0,1,0,23.004942,0,1"
       radius="0"
       unit="px"
       method="auto"
       mode="F"
       chamfer_steps="1"
       flexible="false"
       use_knot_distance="true"
       apply_no_radius="true"
       apply_with_radius="true"
       only_selected="false"
       hide_knots="false" /><inkscape:path-effect
       effect="fillet_chamfer"
       id="path-effect38"
       is_visible="true"
       lpeversion="1"
       nodesatellites_param="F,0,0,1,0,4.5770273,0,1 @ F,0,0,1,0,6.0070781,0,1 @ F,0,0,1,0,6.1540189,0,1 @ F,0,0,1,0,7.235077,0,1"
       radius="0"
       unit="px"
       method="auto"
       mode="F"
       chamfer_steps="1"
       flexible="false"
       use_knot_distance="true"
       apply_no_radius="true"
       apply_with_radius="true"
       only_selected="false"
       hide_knots="false" /><inkscape:path-effect
       effect="fillet_chamfer"
       id="path-effect21"
       is_visible="true"
       lpeversion="1"
       nodesatellites_param="F,0,0,1,0,4.5770273,0,1 @ F,0,0,1,0,6.0070781,0,1 @ F,0,0,1,0,6.1540189,0,1 @ F,0,0,1,0,7.235077,0,1"
       radius="0"
       unit="px"
       method="auto"
       mode="F"
       chamfer_steps="1"
       flexible="false"
       use_knot_distance="true"
       apply_no_radius="true"
       apply_with_radius="true"
       only_selected="false"
       hide_knots="false" /><inkscape:path-effect
       effect="fillet_chamfer"
       id="path-effect20"
       is_visible="true"
       lpeversion="1"
       nodesatellites_param="F,0,0,1,0,0,0,1 @ F,0,0,1,0,16.013566,0,1 @ F,0,1,1,0,16.013566,0,1 @ F,0,0,1,0,3.4714329,0,1 @ F,0,0,1,0,5.3123933,0,1 @ F,0,0,1,0,23.004942,0,1"
       radius="0"
       unit="px"
       method="auto"
       mode="F"
       chamfer_steps="1"
       flexible="false"
       use_knot_distance="true"
       apply_no_radius="true"
       apply_with_radius="true"
       only_selected="false"
       hide_knots="false" /><color-profile
       name="sRGB"
       xlink:href="file:///usr/share/color/icc/colord/sRGB.icc"
       id="color-profile1" /><pattern
       patternUnits="userSpaceOnUse"
       width="128.01757"
       height="100.41107"
       patternTransform="translate(33.628508,27.588927)"
       preserveAspectRatio="xMidYMid"
       id="pattern10"
       style="fill:#000000"
       inkscape:label="pattern10"><g
         id="g10"
         style="opacity:1;stroke-width:0;stroke-dasharray:none"
         transform="matrix(0.19294046,0,0,0.19294046,-40.179066,-43.074074)"><path
           id="path4"
           style="display:inline;opacity:1;fill:#e9afaf;stroke:#2b0000;stroke-width:0;stroke-dasharray:none"
           inkscape:label="face"
           d="M 485.9082,223.26367 C 370.41505,222.29136 326.23681,275.58133 275.09961,386.36719 251.75777,436.93599 207.65399,474.81834 208.25195,539.5 209.87616,715.19191 410.152,743.67578 540,743.67578 669.848,743.67578 870.12384,715.19191 871.74805,539.5 872.34601,474.81834 828.24223,436.93599 804.90039,386.36719 746.45788,259.75477 697.10449,208.24048 540,226.99414 c -19.63806,-2.34421 -37.59277,-3.59157 -54.0918,-3.73047 z"
           sodipodi:nodetypes="sssssscs" /><path
           id="path5"
           style="display:inline;opacity:1;fill:#ff5555;stroke:#2b0000;stroke-width:0;stroke-dasharray:none"
           inkscape:label="hair"
           d="M 485.9082,223.26367 C 383.84556,222.40443 337.48268,264.12588 292.78711,350.25 c 0.48672,-0.29074 41.51684,-24.76719 59.50586,-23.18945 16.73635,1.46788 30.28772,34.29326 38.64062,29.4707 7.39611,-4.27015 -4.2832,-25.57617 -4.2832,-25.57617 0,0 24.95667,29.79034 31.88086,26.43164 4.75041,-2.98443 -1.1875,-21.89453 -1.1875,-21.89453 0,0 39.94448,34.49614 49.1875,30.14062 5.64513,-2.6601 -4.48828,-18.17578 -4.48828,-18.17578 0,0 76.70384,54.4021 77.95703,28.37305 1.25319,26.02905 77.95703,-28.37305 77.95703,-28.37305 0,0 -10.13341,15.51568 -4.48828,18.17578 9.24302,4.35552 49.1875,-30.14062 49.1875,-30.14062 0,0 -5.93791,18.9101 -1.1875,21.89453 6.92419,3.3587 31.88086,-26.43164 31.88086,-26.43164 0,0 -11.67931,21.30602 -4.2832,25.57617 8.3529,4.82256 21.90427,-28.00282 38.64062,-29.4707 17.98902,-1.57774 59.01914,22.89871 59.50586,23.18945 -44.69557,-86.12412 -91.05845,-127.84557 -193.12109,-126.98633 -16.49902,0.1389 -34.45376,1.38626 -54.0918,3.73047 -19.63804,-2.34421 -37.59278,-3.59157 -54.0918,-3.73047 z" /><path
           id="path6"
           style="opacity:1;fill:#2b0000;stroke:#2b0000;stroke-width:0;stroke-dasharray:none"
           inkscape:label="eye"
           d="m 405.98633,431.86328 a 63.833984,69.410156 0 0 0 -63.83399,69.41016 63.833984,69.410156 0 0 0 63.83399,69.41015 63.833984,69.410156 0 0 0 63.83398,-69.41015 63.833984,69.410156 0 0 0 -63.83398,-69.41016 z m 268.02734,0 a 63.833984,69.410156 0 0 0 -63.83398,69.41016 63.833984,69.410156 0 0 0 63.83398,69.41015 63.833984,69.410156 0 0 0 63.83399,-69.41015 63.833984,69.410156 0 0 0 -63.83399,-69.41016 z" /><path
           id="path7"
           style="opacity:1;fill:#2b0000;stroke:#2b0000;stroke-width:0;stroke-dasharray:none"
           inkscape:label="nose"
           d="m 540,540 c 0,0 -41.31822,2e-5 -42.41797,21.26953 -1.46208,28.277 31.45117,36.66016 31.45117,36.66016 l 0.54688,29.23437 c 0,0 -10.9384,0.79189 -20.79102,-4.61523 -11.2957,-6.19909 -21.93837,-18.45965 -26.17773,-14.04883 -9.47108,9.8541 10.06839,26.13367 24.10156,33.17188 15.09994,7.57323 33.28711,8.56445 33.28711,8.56445 0,0 18.18717,-0.99122 33.28711,-8.56445 14.03317,-7.03821 33.57264,-23.31778 24.10156,-33.17188 -4.23936,-4.41082 -14.88203,7.84974 -26.17773,14.04883 -9.85262,5.40712 -20.79102,4.61523 -20.79102,4.61523 l 0.54688,-29.23437 c 0,0 32.91325,-8.38316 31.45117,-36.66016 C 581.31822,540.00002 540,540 540,540 Z" /><path
           id="path8"
           style="opacity:1;fill:#ff8080;stroke:#2b0000;stroke-width:0;stroke-dasharray:none"
           inkscape:label="blush"
           d="m 314.00195,584.8125 a 21.806641,15.660156 0 0 0 -21.80664,15.66016 21.806641,15.660156 0 0 0 21.80664,15.66015 21.806641,15.660156 0 0 0 21.80664,-15.66015 21.806641,15.660156 0 0 0 -21.80664,-15.66016 z m 451.9961,0 a 21.806641,15.660156 0 0 0 -21.80664,15.66016 21.806641,15.660156 0 0 0 21.80664,15.66015 21.806641,15.660156 0 0 0 21.80664,-15.66015 21.806641,15.660156 0 0 0 -21.80664,-15.66016 z" /><path
           id="path9"
           style="opacity:1;fill:#ffffff;fill-opacity:1;stroke:#2b0000;stroke-width:0;stroke-dasharray:none"
           inkscape:label="reflection"
           d="m 500.13227,460.90093 a 6.4008157,6.4008157 0 0 0 -3.97581,1.38267 4.8891424,4.8891424 0 0 0 -0.98958,6.60884 l 5.94155,8.61538 a 5.9842773,5.9842773 0 0 0 9.18827,0.80336 l 0.0497,-0.0507 a 6.5302963,6.5302963 0 0 0 0.20275,-8.95579 l -5.66227,-6.28576 a 6.4008157,6.4008157 0 0 0 -4.75459,-2.11795 z m 149.92734,0 a 6.4008157,6.4008157 0 0 0 -4.75594,2.11795 l -5.66227,6.28576 a 6.5302963,6.5302963 0 0 0 0.20275,8.95579 l 0.0497,0.0507 a 5.9842773,5.9842773 0 0 0 9.18826,-0.80336 l 5.94156,-8.61538 a 4.8891424,4.8891424 0 0 0 -0.98959,-6.60884 6.4008157,6.4008157 0 0 0 -3.97446,-1.38267 z"
           transform="matrix(1.4545979,0,0,1.5778465,-296.53237,-268.88326)" /><path
           id="path10"
           style="display:none;opacity:0.380283;fill:#ffaaaa;stroke:#2b0000;stroke-width:0;stroke-dasharray:none"
           inkscape:label="depth"
           d="m 366.78515,495.48125 c -1.30496,0.037 -2.6845,0.29877 -4.15038,0.82528 -7.63508,2.74241 -9.46085,14.9106 -2.88282,25.85083 3.08077,5.12378 6.59341,10.34293 10.24024,14.56374 1.71786,1.98826 4.74203,4.87276 6.86914,6.11736 9.11594,5.33387 24.38553,6.38528 33.23633,6.51108 3.8065,0.0541 8.16285,-4.23372 9.69531,-9.34954 3.47692,-11.60699 -8.01621,-17.18218 -23.33984,-22.05361 -2.85738,-0.90835 -5.39877,-2.19185 -7.31056,-3.97294 -0.30914,-0.28801 -0.60446,-0.58079 -0.88671,-0.87867 -6.79765,-7.1742 -12.33595,-17.87282 -21.47071,-17.61353 z m 346.42969,1e-5 c -9.13476,-0.2593 -14.67305,10.43934 -21.47069,17.61352 -0.28226,0.29788 -0.57759,0.59067 -0.88673,0.87867 -1.91177,1.78109 -4.45317,3.06458 -7.31054,3.97295 -15.32364,4.87142 -26.81677,10.44659 -23.33985,22.0536 1.53246,5.11583 5.88881,9.40365 9.69531,9.34955 8.85079,-0.12581 24.12039,-1.17723 33.23633,-6.5111 2.12711,-1.24458 5.15127,-4.12909 6.86915,-6.11734 3.64682,-4.22082 7.15946,-9.43998 10.24022,-14.56374 6.57804,-10.94023 4.75227,-23.10843 -2.88281,-25.85083 -1.46587,-0.52652 -2.84542,-0.78825 -4.15039,-0.82528 z" /></g></pattern><pattern
       patternUnits="userSpaceOnUse"
       width="235.56837"
       height="200.82215"
       patternTransform="translate(33.628508,27.588927)"
       preserveAspectRatio="xMidYMid"
       id="pattern33"
       style="fill:#000000"
       inkscape:label="pattern33"><g
         id="g26"
         style="display:inline;opacity:1;stroke-width:0;stroke-dasharray:none"
         transform="matrix(0.19294046,0,0,0.19294046,-40.179066,-43.074074)"
         sodipodi:insensitive="true"><path
           id="path14"
           style="display:inline;opacity:1;fill:#e9afaf;stroke:#2b0000;stroke-width:0;stroke-dasharray:none"
           inkscape:label="face"
           d="M 485.9082,223.26367 C 370.41505,222.29136 326.23681,275.58133 275.09961,386.36719 251.75777,436.93599 207.65399,474.81834 208.25195,539.5 209.87616,715.19191 410.152,743.67578 540,743.67578 669.848,743.67578 870.12384,715.19191 871.74805,539.5 872.34601,474.81834 828.24223,436.93599 804.90039,386.36719 746.45788,259.75477 697.10449,208.24048 540,226.99414 c -19.63806,-2.34421 -37.59277,-3.59157 -54.0918,-3.73047 z"
           sodipodi:nodetypes="sssssscs" /><path
           id="path18"
           style="display:inline;opacity:1;fill:#ff5555;stroke:#2b0000;stroke-width:0;stroke-dasharray:none"
           inkscape:label="hair"
           d="M 485.9082,223.26367 C 383.84556,222.40443 337.48268,264.12588 292.78711,350.25 c 0.48672,-0.29074 41.51684,-24.76719 59.50586,-23.18945 16.73635,1.46788 30.28772,34.29326 38.64062,29.4707 7.39611,-4.27015 -4.2832,-25.57617 -4.2832,-25.57617 0,0 24.95667,29.79034 31.88086,26.43164 4.75041,-2.98443 -1.1875,-21.89453 -1.1875,-21.89453 0,0 39.94448,34.49614 49.1875,30.14062 5.64513,-2.6601 -4.48828,-18.17578 -4.48828,-18.17578 0,0 76.70384,54.4021 77.95703,28.37305 1.25319,26.02905 77.95703,-28.37305 77.95703,-28.37305 0,0 -10.13341,15.51568 -4.48828,18.17578 9.24302,4.35552 49.1875,-30.14062 49.1875,-30.14062 0,0 -5.93791,18.9101 -1.1875,21.89453 6.92419,3.3587 31.88086,-26.43164 31.88086,-26.43164 0,0 -11.67931,21.30602 -4.2832,25.57617 8.3529,4.82256 21.90427,-28.00282 38.64062,-29.4707 17.98902,-1.57774 59.01914,22.89871 59.50586,23.18945 -44.69557,-86.12412 -91.05845,-127.84557 -193.12109,-126.98633 -16.49902,0.1389 -34.45376,1.38626 -54.0918,3.73047 -19.63804,-2.34421 -37.59278,-3.59157 -54.0918,-3.73047 z" /><path
           id="path22"
           style="opacity:1;fill:#2b0000;stroke:#2b0000;stroke-width:0;stroke-dasharray:none"
           inkscape:label="eye"
           d="m 405.98633,431.86328 a 63.833984,69.410156 0 0 0 -63.83399,69.41016 63.833984,69.410156 0 0 0 63.83399,69.41015 63.833984,69.410156 0 0 0 63.83398,-69.41015 63.833984,69.410156 0 0 0 -63.83398,-69.41016 z m 268.02734,0 a 63.833984,69.410156 0 0 0 -63.83398,69.41016 63.833984,69.410156 0 0 0 63.83398,69.41015 63.833984,69.410156 0 0 0 63.83399,-69.41015 63.833984,69.410156 0 0 0 -63.83399,-69.41016 z" /><path
           id="path23"
           style="opacity:1;fill:#2b0000;stroke:#2b0000;stroke-width:0;stroke-dasharray:none"
           inkscape:label="nose"
           d="m 540,540 c 0,0 -41.31822,2e-5 -42.41797,21.26953 -1.46208,28.277 31.45117,36.66016 31.45117,36.66016 l 0.54688,29.23437 c 0,0 -10.9384,0.79189 -20.79102,-4.61523 -11.2957,-6.19909 -21.93837,-18.45965 -26.17773,-14.04883 -9.47108,9.8541 10.06839,26.13367 24.10156,33.17188 15.09994,7.57323 33.28711,8.56445 33.28711,8.56445 0,0 18.18717,-0.99122 33.28711,-8.56445 14.03317,-7.03821 33.57264,-23.31778 24.10156,-33.17188 -4.23936,-4.41082 -14.88203,7.84974 -26.17773,14.04883 -9.85262,5.40712 -20.79102,4.61523 -20.79102,4.61523 l 0.54688,-29.23437 c 0,0 32.91325,-8.38316 31.45117,-36.66016 C 581.31822,540.00002 540,540 540,540 Z" /><path
           id="path24"
           style="opacity:1;fill:#ff8080;stroke:#2b0000;stroke-width:0;stroke-dasharray:none"
           inkscape:label="blush"
           d="m 314.00195,584.8125 a 21.806641,15.660156 0 0 0 -21.80664,15.66016 21.806641,15.660156 0 0 0 21.80664,15.66015 21.806641,15.660156 0 0 0 21.80664,-15.66015 21.806641,15.660156 0 0 0 -21.80664,-15.66016 z m 451.9961,0 a 21.806641,15.660156 0 0 0 -21.80664,15.66016 21.806641,15.660156 0 0 0 21.80664,15.66015 21.806641,15.660156 0 0 0 21.80664,-15.66015 21.806641,15.660156 0 0 0 -21.80664,-15.66016 z" /><path
           id="path25"
           style="opacity:1;fill:#ffffff;fill-opacity:1;stroke:#2b0000;stroke-width:0;stroke-dasharray:none"
           inkscape:label="reflection"
           d="m 500.13227,460.90093 a 6.4008157,6.4008157 0 0 0 -3.97581,1.38267 4.8891424,4.8891424 0 0 0 -0.98958,6.60884 l 5.94155,8.61538 a 5.9842773,5.9842773 0 0 0 9.18827,0.80336 l 0.0497,-0.0507 a 6.5302963,6.5302963 0 0 0 0.20275,-8.95579 l -5.66227,-6.28576 a 6.4008157,6.4008157 0 0 0 -4.75459,-2.11795 z m 149.92734,0 a 6.4008157,6.4008157 0 0 0 -4.75594,2.11795 l -5.66227,6.28576 a 6.5302963,6.5302963 0 0 0 0.20275,8.95579 l 0.0497,0.0507 a 5.9842773,5.9842773 0 0 0 9.18826,-0.80336 l 5.94156,-8.61538 a 4.8891424,4.8891424 0 0 0 -0.98959,-6.60884 6.4008157,6.4008157 0 0 0 -3.97446,-1.38267 z"
           transform="matrix(1.4545979,0,0,1.5778465,-296.53237,-268.88326)" /><path
           id="path26"
           style="display:none;opacity:0.380283;fill:#ffaaaa;stroke:#2b0000;stroke-width:0;stroke-dasharray:none"
           inkscape:label="depth"
           d="m 366.78515,495.48125 c -1.30496,0.037 -2.6845,0.29877 -4.15038,0.82528 -7.63508,2.74241 -9.46085,14.9106 -2.88282,25.85083 3.08077,5.12378 6.59341,10.34293 10.24024,14.56374 1.71786,1.98826 4.74203,4.87276 6.86914,6.11736 9.11594,5.33387 24.38553,6.38528 33.23633,6.51108 3.8065,0.0541 8.16285,-4.23372 9.69531,-9.34954 3.47692,-11.60699 -8.01621,-17.18218 -23.33984,-22.05361 -2.85738,-0.90835 -5.39877,-2.19185 -7.31056,-3.97294 -0.30914,-0.28801 -0.60446,-0.58079 -0.88671,-0.87867 -6.79765,-7.1742 -12.33595,-17.87282 -21.47071,-17.61353 z m 346.42969,1e-5 c -9.13476,-0.2593 -14.67305,10.43934 -21.47069,17.61352 -0.28226,0.29788 -0.57759,0.59067 -0.88673,0.87867 -1.91177,1.78109 -4.45317,3.06458 -7.31054,3.97295 -15.32364,4.87142 -26.81677,10.44659 -23.33985,22.0536 1.53246,5.11583 5.88881,9.40365 9.69531,9.34955 8.85079,-0.12581 24.12039,-1.17723 33.23633,-6.5111 2.12711,-1.24458 5.15127,-4.12909 6.86915,-6.11734 3.64682,-4.22082 7.15946,-9.43998 10.24022,-14.56374 6.57804,-10.94023 4.75227,-23.10843 -2.88281,-25.85083 -1.46587,-0.52652 -2.84542,-0.78825 -4.15039,-0.82528 z" /></g><g
         id="g33"
         style="display:inline;opacity:1;stroke-width:0;stroke-dasharray:none"
         transform="matrix(0.19294046,0,0,0.19294046,67.371742,57.336999)"><path
           id="path27"
           style="display:inline;opacity:1;fill:#e9afaf;stroke:#2b0000;stroke-width:0;stroke-dasharray:none"
           inkscape:label="face"
           d="M 485.9082,223.26367 C 370.41505,222.29136 326.23681,275.58133 275.09961,386.36719 251.75777,436.93599 207.65399,474.81834 208.25195,539.5 209.87616,715.19191 410.152,743.67578 540,743.67578 669.848,743.67578 870.12384,715.19191 871.74805,539.5 872.34601,474.81834 828.24223,436.93599 804.90039,386.36719 746.45788,259.75477 697.10449,208.24048 540,226.99414 c -19.63806,-2.34421 -37.59277,-3.59157 -54.0918,-3.73047 z"
           sodipodi:nodetypes="sssssscs" /><path
           id="path28"
           style="display:inline;opacity:1;fill:#ff5555;stroke:#2b0000;stroke-width:0;stroke-dasharray:none"
           inkscape:label="hair"
           d="M 485.9082,223.26367 C 383.84556,222.40443 337.48268,264.12588 292.78711,350.25 c 0.48672,-0.29074 41.51684,-24.76719 59.50586,-23.18945 16.73635,1.46788 30.28772,34.29326 38.64062,29.4707 7.39611,-4.27015 -4.2832,-25.57617 -4.2832,-25.57617 0,0 24.95667,29.79034 31.88086,26.43164 4.75041,-2.98443 -1.1875,-21.89453 -1.1875,-21.89453 0,0 39.94448,34.49614 49.1875,30.14062 5.64513,-2.6601 -4.48828,-18.17578 -4.48828,-18.17578 0,0 76.70384,54.4021 77.95703,28.37305 1.25319,26.02905 77.95703,-28.37305 77.95703,-28.37305 0,0 -10.13341,15.51568 -4.48828,18.17578 9.24302,4.35552 49.1875,-30.14062 49.1875,-30.14062 0,0 -5.93791,18.9101 -1.1875,21.89453 6.92419,3.3587 31.88086,-26.43164 31.88086,-26.43164 0,0 -11.67931,21.30602 -4.2832,25.57617 8.3529,4.82256 21.90427,-28.00282 38.64062,-29.4707 17.98902,-1.57774 59.01914,22.89871 59.50586,23.18945 -44.69557,-86.12412 -91.05845,-127.84557 -193.12109,-126.98633 -16.49902,0.1389 -34.45376,1.38626 -54.0918,3.73047 -19.63804,-2.34421 -37.59278,-3.59157 -54.0918,-3.73047 z" /><path
           id="path29"
           style="opacity:1;fill:#2b0000;stroke:#2b0000;stroke-width:0;stroke-dasharray:none"
           inkscape:label="eye"
           d="m 405.98633,431.86328 a 63.833984,69.410156 0 0 0 -63.83399,69.41016 63.833984,69.410156 0 0 0 63.83399,69.41015 63.833984,69.410156 0 0 0 63.83398,-69.41015 63.833984,69.410156 0 0 0 -63.83398,-69.41016 z m 268.02734,0 a 63.833984,69.410156 0 0 0 -63.83398,69.41016 63.833984,69.410156 0 0 0 63.83398,69.41015 63.833984,69.410156 0 0 0 63.83399,-69.41015 63.833984,69.410156 0 0 0 -63.83399,-69.41016 z" /><path
           id="path30"
           style="opacity:1;fill:#2b0000;stroke:#2b0000;stroke-width:0;stroke-dasharray:none"
           inkscape:label="nose"
           d="m 540,540 c 0,0 -41.31822,2e-5 -42.41797,21.26953 -1.46208,28.277 31.45117,36.66016 31.45117,36.66016 l 0.54688,29.23437 c 0,0 -10.9384,0.79189 -20.79102,-4.61523 -11.2957,-6.19909 -21.93837,-18.45965 -26.17773,-14.04883 -9.47108,9.8541 10.06839,26.13367 24.10156,33.17188 15.09994,7.57323 33.28711,8.56445 33.28711,8.56445 0,0 18.18717,-0.99122 33.28711,-8.56445 14.03317,-7.03821 33.57264,-23.31778 24.10156,-33.17188 -4.23936,-4.41082 -14.88203,7.84974 -26.17773,14.04883 -9.85262,5.40712 -20.79102,4.61523 -20.79102,4.61523 l 0.54688,-29.23437 c 0,0 32.91325,-8.38316 31.45117,-36.66016 C 581.31822,540.00002 540,540 540,540 Z" /><path
           id="path31"
           style="opacity:1;fill:#ff8080;stroke:#2b0000;stroke-width:0;stroke-dasharray:none"
           inkscape:label="blush"
           d="m 314.00195,584.8125 a 21.806641,15.660156 0 0 0 -21.80664,15.66016 21.806641,15.660156 0 0 0 21.80664,15.66015 21.806641,15.660156 0 0 0 21.80664,-15.66015 21.806641,15.660156 0 0 0 -21.80664,-15.66016 z m 451.9961,0 a 21.806641,15.660156 0 0 0 -21.80664,15.66016 21.806641,15.660156 0 0 0 21.80664,15.66015 21.806641,15.660156 0 0 0 21.80664,-15.66015 21.806641,15.660156 0 0 0 -21.80664,-15.66016 z" /><path
           id="path32"
           style="opacity:1;fill:#ffffff;fill-opacity:1;stroke:#2b0000;stroke-width:0;stroke-dasharray:none"
           inkscape:label="reflection"
           d="m 500.13227,460.90093 a 6.4008157,6.4008157 0 0 0 -3.97581,1.38267 4.8891424,4.8891424 0 0 0 -0.98958,6.60884 l 5.94155,8.61538 a 5.9842773,5.9842773 0 0 0 9.18827,0.80336 l 0.0497,-0.0507 a 6.5302963,6.5302963 0 0 0 0.20275,-8.95579 l -5.66227,-6.28576 a 6.4008157,6.4008157 0 0 0 -4.75459,-2.11795 z m 149.92734,0 a 6.4008157,6.4008157 0 0 0 -4.75594,2.11795 l -5.66227,6.28576 a 6.5302963,6.5302963 0 0 0 0.20275,8.95579 l 0.0497,0.0507 a 5.9842773,5.9842773 0 0 0 9.18826,-0.80336 l 5.94156,-8.61538 a 4.8891424,4.8891424 0 0 0 -0.98959,-6.60884 6.4008157,6.4008157 0 0 0 -3.97446,-1.38267 z"
           transform="matrix(1.4545979,0,0,1.5778465,-296.53237,-268.88326)" /><path
           id="path33"
           style="display:none;opacity:0.380283;fill:#ffaaaa;stroke:#2b0000;stroke-width:0;stroke-dasharray:none"
           inkscape:label="depth"
           d="m 366.78515,495.48125 c -1.30496,0.037 -2.6845,0.29877 -4.15038,0.82528 -7.63508,2.74241 -9.46085,14.9106 -2.88282,25.85083 3.08077,5.12378 6.59341,10.34293 10.24024,14.56374 1.71786,1.98826 4.74203,4.87276 6.86914,6.11736 9.11594,5.33387 24.38553,6.38528 33.23633,6.51108 3.8065,0.0541 8.16285,-4.23372 9.69531,-9.34954 3.47692,-11.60699 -8.01621,-17.18218 -23.33984,-22.05361 -2.85738,-0.90835 -5.39877,-2.19185 -7.31056,-3.97294 -0.30914,-0.28801 -0.60446,-0.58079 -0.88671,-0.87867 -6.79765,-7.1742 -12.33595,-17.87282 -21.47071,-17.61353 z m 346.42969,1e-5 c -9.13476,-0.2593 -14.67305,10.43934 -21.47069,17.61352 -0.28226,0.29788 -0.57759,0.59067 -0.88673,0.87867 -1.91177,1.78109 -4.45317,3.06458 -7.31054,3.97295 -15.32364,4.87142 -26.81677,10.44659 -23.33985,22.0536 1.53246,5.11583 5.88881,9.40365 9.69531,9.34955 8.85079,-0.12581 24.12039,-1.17723 33.23633,-6.5111 2.12711,-1.24458 5.15127,-4.12909 6.86915,-6.11734 3.64682,-4.22082 7.15946,-9.43998 10.24022,-14.56374 6.57804,-10.94023 4.75227,-23.10843 -2.88281,-25.85083 -1.46587,-0.52652 -2.84542,-0.78825 -4.15039,-0.82528 z" /></g></pattern></defs><g
     inkscape:label="Layer 1"
     inkscape:groupmode="layer"
     id="layer1"><rect
       style="display:none;opacity:1;fill:#ff8080;fill-opacity:1;stroke:#2b0000;stroke-width:0"
       id="rect2"
       width="1500"
       height="500"
       x="1.2948872e-06"
       y="5.7629116e-08"
       sodipodi:insensitive="true" /><rect
       style="display:none;opacity:1;fill:url(#pattern34);fill-opacity:1;stroke:#2b0000;stroke-width:0"
       id="rect3"
       width="1280"
       height="700"
       x="0"
       y="0"
       sodipodi:insensitive="true" /><path
       style="display:none;fill:#ffaaaa;stroke:#2b0000;stroke-width:1;stroke-dasharray:none"
       d="M 540,0 V 1080"
       id="path11"
       inkscape:label="path11"
       sodipodi:insensitive="true" /><rect
       style="display:none;opacity:1;fill:url(#pattern40);fill-opacity:1;stroke:#2b0000;stroke-width:0;stroke-dasharray:none"
       id="rect34"
       width="3060.425"
       height="1020.1417"
       x="131.94331"
       y="75.406509"
       transform="matrix(0.49012798,0,0,0.49012798,-64.669109,-36.958838)" /><path
       style="display:none;fill:#ffaaaa;stroke:#2b0000;stroke-width:1;stroke-dasharray:none"
       d="M 1080,540 H 0"
       id="path12"
       sodipodi:insensitive="true" /><g
       id="g21"
       style="display:inline;opacity:1;stroke-width:0;stroke-dasharray:none"
       transform="matrix(0.12263788,0,0,0.12263788,-18.224455,-11.290901)"><path
         id="path21"
         style="display:inline;opacity:1;fill:#e9afaf;stroke:#2b0000;stroke-width:0;stroke-dasharray:none"
         inkscape:label="face"
         d="M 485.9082,223.26367 C 370.41505,222.29136 326.23681,275.58133 275.09961,386.36719 251.75777,436.93599 207.65399,474.81834 208.25195,539.5 209.87616,715.19191 410.152,743.67578 540,743.67578 669.848,743.67578 870.12384,715.19191 871.74805,539.5 872.34601,474.81834 828.24223,436.93599 804.90039,386.36719 746.45788,259.75477 697.10449,208.24048 540,226.99414 c -19.63806,-2.34421 -37.59277,-3.59157 -54.0918,-3.73047 z"
         sodipodi:nodetypes="sssssscs" /><path
         id="path13"
         style="display:inline;opacity:1;fill:#ff5555;stroke:#2b0000;stroke-width:0;stroke-dasharray:none"
         inkscape:label="hair"
         d="M 485.9082,223.26367 C 383.84556,222.40443 337.48268,264.12588 292.78711,350.25 c 0.48672,-0.29074 41.51684,-24.76719 59.50586,-23.18945 16.73635,1.46788 30.28772,34.29326 38.64062,29.4707 7.39611,-4.27015 -4.2832,-25.57617 -4.2832,-25.57617 0,0 24.95667,29.79034 31.88086,26.43164 4.75041,-2.98443 -1.1875,-21.89453 -1.1875,-21.89453 0,0 39.94448,34.49614 49.1875,30.14062 5.64513,-2.6601 -4.48828,-18.17578 -4.48828,-18.17578 0,0 76.70384,54.4021 77.95703,28.37305 1.25319,26.02905 77.95703,-28.37305 77.95703,-28.37305 0,0 -10.13341,15.51568 -4.48828,18.17578 9.24302,4.35552 49.1875,-30.14062 49.1875,-30.14062 0,0 -5.93791,18.9101 -1.1875,21.89453 6.92419,3.3587 31.88086,-26.43164 31.88086,-26.43164 0,0 -11.67931,21.30602 -4.2832,25.57617 8.3529,4.82256 21.90427,-28.00282 38.64062,-29.4707 17.98902,-1.57774 59.01914,22.89871 59.50586,23.18945 -44.69557,-86.12412 -91.05845,-127.84557 -193.12109,-126.98633 -16.49902,0.1389 -34.45376,1.38626 -54.0918,3.73047 -19.63804,-2.34421 -37.59278,-3.59157 -54.0918,-3.73047 z" /><path
         id="path15"
         style="opacity:1;fill:#2b0000;stroke:#2b0000;stroke-width:0;stroke-dasharray:none"
         inkscape:label="eye"
         d="m 405.98633,431.86328 a 63.833984,69.410156 0 0 0 -63.83399,69.41016 63.833984,69.410156 0 0 0 63.83399,69.41015 63.833984,69.410156 0 0 0 63.83398,-69.41015 63.833984,69.410156 0 0 0 -63.83398,-69.41016 z m 268.02734,0 a 63.833984,69.410156 0 0 0 -63.83398,69.41016 63.833984,69.410156 0 0 0 63.83398,69.41015 63.833984,69.410156 0 0 0 63.83399,-69.41015 63.833984,69.410156 0 0 0 -63.83399,-69.41016 z" /><path
         id="path16"
         style="opacity:1;fill:#2b0000;stroke:#2b0000;stroke-width:0;stroke-dasharray:none"
         inkscape:label="nose"
         d="m 540,540 c 0,0 -41.31822,2e-5 -42.41797,21.26953 -1.46208,28.277 31.45117,36.66016 31.45117,36.66016 l 0.54688,29.23437 c 0,0 -10.9384,0.79189 -20.79102,-4.61523 -11.2957,-6.19909 -21.93837,-18.45965 -26.17773,-14.04883 -9.47108,9.8541 10.06839,26.13367 24.10156,33.17188 15.09994,7.57323 33.28711,8.56445 33.28711,8.56445 0,0 18.18717,-0.99122 33.28711,-8.56445 14.03317,-7.03821 33.57264,-23.31778 24.10156,-33.17188 -4.23936,-4.41082 -14.88203,7.84974 -26.17773,14.04883 -9.85262,5.40712 -20.79102,4.61523 -20.79102,4.61523 l 0.54688,-29.23437 c 0,0 32.91325,-8.38316 31.45117,-36.66016 C 581.31822,540.00002 540,540 540,540 Z" /><path
         id="path17"
         style="opacity:1;fill:#ff8080;stroke:#2b0000;stroke-width:0;stroke-dasharray:none"
         inkscape:label="blush"
         d="m 314.00195,584.8125 a 21.806641,15.660156 0 0 0 -21.80664,15.66016 21.806641,15.660156 0 0 0 21.80664,15.66015 21.806641,15.660156 0 0 0 21.80664,-15.66015 21.806641,15.660156 0 0 0 -21.80664,-15.66016 z m 451.9961,0 a 21.806641,15.660156 0 0 0 -21.80664,15.66016 21.806641,15.660156 0 0 0 21.80664,15.66015 21.806641,15.660156 0 0 0 21.80664,-15.66015 21.806641,15.660156 0 0 0 -21.80664,-15.66016 z" /><path
         id="path19"
         style="opacity:1;fill:#ffffff;fill-opacity:1;stroke:#2b0000;stroke-width:0;stroke-dasharray:none"
         inkscape:label="reflection"
         d="m 500.13227,460.90093 a 6.4008157,6.4008157 0 0 0 -3.97581,1.38267 4.8891424,4.8891424 0 0 0 -0.98958,6.60884 l 5.94155,8.61538 a 5.9842773,5.9842773 0 0 0 9.18827,0.80336 l 0.0497,-0.0507 a 6.5302963,6.5302963 0 0 0 0.20275,-8.95579 l -5.66227,-6.28576 a 6.4008157,6.4008157 0 0 0 -4.75459,-2.11795 z m 149.92734,0 a 6.4008157,6.4008157 0 0 0 -4.75594,2.11795 l -5.66227,6.28576 a 6.5302963,6.5302963 0 0 0 0.20275,8.95579 l 0.0497,0.0507 a 5.9842773,5.9842773 0 0 0 9.18826,-0.80336 l 5.94156,-8.61538 a 4.8891424,4.8891424 0 0 0 -0.98959,-6.60884 6.4008157,6.4008157 0 0 0 -3.97446,-1.38267 z"
         transform="matrix(1.4545979,0,0,1.5778465,-296.53237,-268.88326)" /><path
         id="path20"
         style="display:none;opacity:0.380283;fill:#ffaaaa;stroke:#2b0000;stroke-width:0;stroke-dasharray:none"
         inkscape:label="depth"
         d="m 366.78515,495.48125 c -1.30496,0.037 -2.6845,0.29877 -4.15038,0.82528 -7.63508,2.74241 -9.46085,14.9106 -2.88282,25.85083 3.08077,5.12378 6.59341,10.34293 10.24024,14.56374 1.71786,1.98826 4.74203,4.87276 6.86914,6.11736 9.11594,5.33387 24.38553,6.38528 33.23633,6.51108 3.8065,0.0541 8.16285,-4.23372 9.69531,-9.34954 3.47692,-11.60699 -8.01621,-17.18218 -23.33984,-22.05361 -2.85738,-0.90835 -5.39877,-2.19185 -7.31056,-3.97294 -0.30914,-0.28801 -0.60446,-0.58079 -0.88671,-0.87867 -6.79765,-7.1742 -12.33595,-17.87282 -21.47071,-17.61353 z m 346.42969,1e-5 c -9.13476,-0.2593 -14.67305,10.43934 -21.47069,17.61352 -0.28226,0.29788 -0.57759,0.59067 -0.88673,0.87867 -1.91177,1.78109 -4.45317,3.06458 -7.31054,3.97295 -15.32364,4.87142 -26.81677,10.44659 -23.33985,22.0536 1.53246,5.11583 5.88881,9.40365 9.69531,9.34955 8.85079,-0.12581 24.12039,-1.17723 33.23633,-6.5111 2.12711,-1.24458 5.15127,-4.12909 6.86915,-6.11734 3.64682,-4.22082 7.15946,-9.43998 10.24022,-14.56374 6.57804,-10.94023 4.75227,-23.10843 -2.88281,-25.85083 -1.46587,-0.52652 -2.84542,-0.78825 -4.15039,-0.82528 z" /></g><rect
       style="display:none;fill:url(#pattern33);stroke:none"
       width="235.56837"
       height="200.82214"
       x="33.62851"
       y="27.588926"
       id="rect33" /><text
       xml:space="preserve"
       style="font-size:1440px;line-height:0;font-family:Sans;-inkscape-font-specification:'Sans, Normal';display:none;opacity:1;fill:#ff8080;fill-opacity:1;stroke:#2b0000;stroke-width:10;stroke-dasharray:none"
       x="262.625"
       y="669.5"
       id="text35"><tspan
         sodipodi:role="line"
         id="tspan35"
         x="0"
         y="0"
         style="font-style:normal;font-variant:normal;font-weight:normal;font-stretch:normal;font-size:350px;font-family:Sans;-inkscape-font-specification:'Sans, Normal';font-variant-ligatures:normal;font-variant-caps:normal;font-variant-numeric:normal;font-variant-east-asian:normal;stroke-width:10;stroke-dasharray:none">PHAYLALI</tspan></text></g></svg>
